<svg xmlns="http://www.w3.org/2000/svg" viewBox="0 0 200 200">
  <rect width="200" height="200" fill="#0a0a0a"/>
  <circle cx="178.7" cy="100.0" r="2.3" fill="#00ff88" opacity="0.95"/>
  <circle cx="180.4" cy="104.2" r="2.6" fill="#00ff88" opacity="0.81"/>
  <circle cx="177.4" cy="108.1" r="1.7" fill="#00ff88" opacity="0.43"/>
  <circle cx="172.5" cy="111.5" r="1.9" fill="#00ff88" opacity="1.00"/>
  <circle cx="178.9" cy="116.8" r="2.5" fill="#00ff88" opacity="0.62"/>
  <circle cx="171.3" cy="119.1" r="1.7" fill="#00ff88" opacity="0.94"/>
  <circle cx="178.7" cy="125.6" r="2.8" fill="#00ff88" opacity="0.67"/>
  <circle cx="169.3" cy="126.6" r="2.8" fill="#00ff88" opacity="0.43"/>
  <circle cx="174.4" cy="133.1" r="2.9" fill="#00ff88" opacity="0.88"/>
  <circle cx="163.9" cy="132.6" r="2.0" fill="#00ff88" opacity="0.79"/>
  <circle cx="161.3" cy="135.4" r="1.9" fill="#00ff88" opacity="0.70"/>
  <circle cx="168.4" cy="144.4" r="1.9" fill="#00ff88" opacity="0.71"/>
  <circle cx="156.7" cy="141.2" r="2.4" fill="#00ff88" opacity="0.73"/>
  <circle cx="162.0" cy="150.2" r="2.6" fill="#00ff88" opacity="0.91"/>
  <circle cx="161.1" cy="155.0" r="1.8" fill="#00ff88" opacity="0.90"/>
  <circle cx="154.0" cy="154.0" r="2.9" fill="#00ff88" opacity="0.48"/>
  <circle cx="155.3" cy="161.5" r="1.9" fill="#00ff88" opacity="0.41"/>
  <circle cx="148.7" cy="160.1" r="1.5" fill="#00ff88" opacity="0.49"/>
  <circle cx="149.4" cy="168.0" r="1.9" fill="#00ff88" opacity="0.60"/>
  <circle cx="143.1" cy="166.4" r="2.6" fill="#00ff88" opacity="0.75"/>
  <circle cx="141.1" cy="171.1" r="2.4" fill="#00ff88" opacity="0.77"/>
  <circle cx="132.4" cy="163.6" r="1.9" fill="#00ff88" opacity="0.45"/>
  <circle cx="134.0" cy="176.3" r="3.0" fill="#00ff88" opacity="0.54"/>
  <circle cx="129.5" cy="176.8" r="1.8" fill="#00ff88" opacity="0.65"/>
  <circle cx="122.0" cy="167.6" r="1.5" fill="#00ff88" opacity="0.49"/>
  <circle cx="119.5" cy="172.8" r="2.3" fill="#00ff88" opacity="1.00"/>
  <circle cx="115.9" cy="174.7" r="2.1" fill="#00ff88" opacity="0.61"/>
  <circle cx="112.4" cy="178.5" r="2.1" fill="#00ff88" opacity="0.41"/>
  <circle cx="108.5" cy="180.9" r="2.1" fill="#00ff88" opacity="0.90"/>
  <circle cx="103.8" cy="172.5" r="2.5" fill="#00ff88" opacity="0.72"/>
  <circle cx="100.0" cy="181.5" r="2.4" fill="#00ff88" opacity="0.69"/>
  <circle cx="96.0" cy="176.2" r="1.9" fill="#00ff88" opacity="0.41"/>
  <circle cx="92.2" cy="174.5" r="2.3" fill="#00ff88" opacity="0.57"/>
  <circle cx="86.7" cy="183.8" r="2.7" fill="#00ff88" opacity="0.76"/>
  <circle cx="85.1" cy="169.9" r="2.9" fill="#00ff88" opacity="0.75"/>
  <circle cx="79.6" cy="176.2" r="1.7" fill="#00ff88" opacity="0.46"/>
  <circle cx="74.5" cy="178.4" r="2.5" fill="#00ff88" opacity="0.68"/>
  <circle cx="70.7" cy="176.3" r="2.5" fill="#00ff88" opacity="0.92"/>
  <circle cx="69.5" cy="168.6" r="1.7" fill="#00ff88" opacity="0.67"/>
  <circle cx="67.8" cy="163.3" r="2.9" fill="#00ff88" opacity="0.61"/>
  <circle cx="59.7" cy="169.8" r="2.3" fill="#00ff88" opacity="0.44"/>
  <circle cx="61.1" cy="159.8" r="2.3" fill="#00ff88" opacity="0.67"/>
  <circle cx="50.5" cy="168.2" r="1.5" fill="#00ff88" opacity="0.97"/>
  <circle cx="47.1" cy="165.3" r="2.4" fill="#00ff88" opacity="0.77"/>
  <circle cx="47.9" cy="157.9" r="2.2" fill="#00ff88" opacity="0.71"/>
  <circle cx="48.0" cy="152.0" r="1.8" fill="#00ff88" opacity="0.46"/>
  <circle cx="44.3" cy="150.2" r="3.0" fill="#00ff88" opacity="0.78"/>
  <circle cx="42.9" cy="146.2" r="2.6" fill="#00ff88" opacity="0.57"/>
  <circle cx="34.8" cy="147.4" r="2.8" fill="#00ff88" opacity="0.55"/>
  <circle cx="40.5" cy="138.6" r="2.3" fill="#00ff88" opacity="0.86"/>
  <circle cx="31.0" cy="139.8" r="1.9" fill="#00ff88" opacity="0.86"/>
  <circle cx="25.1" cy="138.2" r="1.8" fill="#00ff88" opacity="0.42"/>
  <circle cx="32.7" cy="130.0" r="1.8" fill="#00ff88" opacity="0.67"/>
  <circle cx="31.3" cy="126.4" r="2.7" fill="#00ff88" opacity="0.56"/>
  <circle cx="32.6" cy="121.9" r="1.8" fill="#00ff88" opacity="0.61"/>
  <circle cx="31.7" cy="118.3" r="2.7" fill="#00ff88" opacity="0.41"/>
  <circle cx="18.7" cy="117.3" r="1.6" fill="#00ff88" opacity="0.82"/>
  <circle cx="28.0" cy="111.4" r="2.7" fill="#00ff88" opacity="0.59"/>
  <circle cx="24.7" cy="107.9" r="2.3" fill="#00ff88" opacity="0.66"/>
  <circle cx="19.7" cy="104.2" r="2.6" fill="#00ff88" opacity="0.80"/>
  <circle cx="23.8" cy="100.0" r="2.0" fill="#00ff88" opacity="0.76"/>
  <circle cx="18.2" cy="95.7" r="2.9" fill="#00ff88" opacity="0.64"/>
  <circle cx="29.6" cy="92.6" r="1.6" fill="#00ff88" opacity="0.93"/>
  <circle cx="22.6" cy="87.7" r="2.4" fill="#00ff88" opacity="0.94"/>
  <circle cx="19.4" cy="82.9" r="2.8" fill="#00ff88" opacity="0.92"/>
  <circle cx="31.7" cy="81.7" r="2.1" fill="#00ff88" opacity="0.64"/>
  <circle cx="32.9" cy="78.2" r="2.2" fill="#00ff88" opacity="0.81"/>
  <circle cx="26.1" cy="71.6" r="2.8" fill="#00ff88" opacity="0.80"/>
  <circle cx="26.9" cy="67.5" r="1.5" fill="#00ff88" opacity="0.89"/>
  <circle cx="30.1" cy="64.4" r="2.0" fill="#00ff88" opacity="0.50"/>
  <circle cx="37.2" cy="63.7" r="1.5" fill="#00ff88" opacity="0.51"/>
  <circle cx="32.4" cy="56.1" r="1.6" fill="#00ff88" opacity="0.50"/>
  <circle cx="35.0" cy="52.8" r="1.7" fill="#00ff88" opacity="0.50"/>
  <circle cx="45.6" cy="55.9" r="1.7" fill="#00ff88" opacity="0.91"/>
  <circle cx="39.6" cy="45.7" r="2.0" fill="#00ff88" opacity="0.63"/>
  <circle cx="43.2" cy="43.2" r="2.1" fill="#00ff88" opacity="0.78"/>
  <circle cx="44.9" cy="38.8" r="2.5" fill="#00ff88" opacity="0.65"/>
  <circle cx="55.9" cy="45.5" r="1.6" fill="#00ff88" opacity="0.42"/>
  <circle cx="55.7" cy="39.1" r="2.3" fill="#00ff88" opacity="0.51"/>
  <circle cx="55.8" cy="31.9" r="2.5" fill="#00ff88" opacity="0.63"/>
  <circle cx="64.3" cy="38.2" r="1.9" fill="#00ff88" opacity="0.65"/>
  <circle cx="63.3" cy="28.0" r="1.7" fill="#00ff88" opacity="0.78"/>
  <circle cx="66.3" cy="24.4" r="2.2" fill="#00ff88" opacity="0.93"/>
  <circle cx="74.2" cy="32.9" r="2.5" fill="#00ff88" opacity="0.46"/>
  <circle cx="73.9" cy="19.6" r="2.3" fill="#00ff88" opacity="0.85"/>
  <circle cx="80.7" cy="28.0" r="2.4" fill="#00ff88" opacity="0.82"/>
  <circle cx="82.5" cy="17.4" r="1.6" fill="#00ff88" opacity="0.44"/>
  <circle cx="87.8" cy="23.0" r="2.0" fill="#00ff88" opacity="0.61"/>
  <circle cx="92.4" cy="27.5" r="2.4" fill="#00ff88" opacity="0.51"/>
  <circle cx="96.1" cy="26.2" r="2.4" fill="#00ff88" opacity="0.65"/>
  <circle cx="100.0" cy="26.4" r="2.2" fill="#00ff88" opacity="0.67"/>
  <circle cx="103.7" cy="28.5" r="2.5" fill="#00ff88" opacity="0.84"/>
  <circle cx="108.6" cy="18.1" r="1.6" fill="#00ff88" opacity="0.92"/>
  <circle cx="113.0" cy="18.0" r="2.6" fill="#00ff88" opacity="0.80"/>
  <circle cx="115.8" cy="25.8" r="1.6" fill="#00ff88" opacity="0.94"/>
  <circle cx="120.5" cy="23.3" r="3.0" fill="#00ff88" opacity="0.55"/>
  <circle cx="124.7" cy="24.0" r="2.1" fill="#00ff88" opacity="0.97"/>
  <circle cx="129.5" cy="23.1" r="2.4" fill="#00ff88" opacity="0.44"/>
  <circle cx="132.4" cy="27.3" r="3.0" fill="#00ff88" opacity="0.42"/>
  <circle cx="132.8" cy="35.6" r="2.4" fill="#00ff88" opacity="0.45"/>
  <circle cx="142.0" cy="27.3" r="1.9" fill="#00ff88" opacity="0.80"/>
  <circle cx="142.5" cy="34.6" r="2.5" fill="#00ff88" opacity="0.74"/>
  <circle cx="142.9" cy="40.9" r="1.8" fill="#00ff88" opacity="0.78"/>
  <circle cx="149.6" cy="38.8" r="2.4" fill="#00ff88" opacity="0.85"/>
  <circle cx="154.1" cy="39.9" r="2.9" fill="#00ff88" opacity="0.97"/>
  <circle cx="151.0" cy="49.0" r="2.9" fill="#00ff88" opacity="0.51"/>
  <circle cx="163.0" cy="43.3" r="1.7" fill="#00ff88" opacity="0.91"/>
  <circle cx="159.0" cy="52.2" r="1.9" fill="#00ff88" opacity="0.42"/>
  <circle cx="160.3" cy="56.2" r="2.3" fill="#00ff88" opacity="0.96"/>
  <circle cx="162.8" cy="59.2" r="2.0" fill="#00ff88" opacity="0.59"/>
  <circle cx="166.0" cy="61.9" r="2.0" fill="#00ff88" opacity="0.43"/>
  <circle cx="167.8" cy="65.4" r="1.9" fill="#00ff88" opacity="0.84"/>
  <circle cx="174.4" cy="66.9" r="2.9" fill="#00ff88" opacity="0.52"/>
  <circle cx="169.5" cy="73.3" r="1.9" fill="#00ff88" opacity="0.55"/>
  <circle cx="178.6" cy="74.5" r="1.8" fill="#00ff88" opacity="0.55"/>
  <circle cx="181.6" cy="78.1" r="1.9" fill="#00ff88" opacity="0.63"/>
  <circle cx="181.2" cy="82.7" r="2.4" fill="#00ff88" opacity="0.62"/>
  <circle cx="177.9" cy="87.7" r="2.9" fill="#00ff88" opacity="0.55"/>
  <circle cx="179.7" cy="91.6" r="1.7" fill="#00ff88" opacity="0.86"/>
  <circle cx="178.5" cy="95.9" r="1.5" fill="#00ff88" opacity="0.89"/>
</svg>
