<svg xmlns="http://www.w3.org/2000/svg" viewBox="0 0 200 200">
  <rect width="200" height="200" fill="#0a0a0a"/>
  <!-- Emergent particle circle - 120 particles, spread 15, size 1.5 -->
  <circle cx="169.8" cy="101.2" r="2.1" fill="#00ff88" opacity="0.72"/>
  <circle cx="168.4" cy="106.5" r="1.8" fill="#00ff88" opacity="0.85"/>
  <circle cx="166.2" cy="112.8" r="2.4" fill="#00ff88" opacity="0.55"/>
  <circle cx="162.1" cy="118.9" r="1.6" fill="#00ff88" opacity="0.91"/>
  <circle cx="158.3" cy="124.2" r="2.2" fill="#00ff88" opacity="0.63"/>
  <circle cx="152.8" cy="130.1" r="1.9" fill="#00ff88" opacity="0.78"/>
  <circle cx="147.5" cy="135.8" r="2.5" fill="#00ff88" opacity="0.48"/>
  <circle cx="141.2" cy="140.9" r="1.7" fill="#00ff88" opacity="0.88"/>
  <circle cx="134.8" cy="145.2" r="2.0" fill="#00ff88" opacity="0.66"/>
  <circle cx="127.9" cy="149.8" r="2.3" fill="#00ff88" opacity="0.52"/>
  <circle cx="120.5" cy="153.1" r="1.8" fill="#00ff88" opacity="0.82"/>
  <circle cx="113.2" cy="156.4" r="2.1" fill="#00ff88" opacity="0.71"/>
  <circle cx="105.8" cy="158.2" r="1.6" fill="#00ff88" opacity="0.94"/>
  <circle cx="98.1" cy="159.8" r="2.4" fill="#00ff88" opacity="0.58"/>
  <circle cx="90.5" cy="159.1" r="1.9" fill="#00ff88" opacity="0.76"/>
  <circle cx="83.2" cy="157.8" r="2.2" fill="#00ff88" opacity="0.64"/>
  <circle cx="76.1" cy="155.2" r="1.7" fill="#00ff88" opacity="0.89"/>
  <circle cx="69.4" cy="151.9" r="2.5" fill="#00ff88" opacity="0.45"/>
  <circle cx="63.2" cy="147.5" r="2.0" fill="#00ff88" opacity="0.73"/>
  <circle cx="57.8" cy="142.1" r="1.8" fill="#00ff88" opacity="0.81"/>
  <circle cx="52.9" cy="136.8" r="2.3" fill="#00ff88" opacity="0.56"/>
  <circle cx="48.5" cy="130.2" r="1.6" fill="#00ff88" opacity="0.92"/>
  <circle cx="45.2" cy="123.5" r="2.1" fill="#00ff88" opacity="0.68"/>
  <circle cx="42.1" cy="116.8" r="1.9" fill="#00ff88" opacity="0.79"/>
  <circle cx="40.5" cy="109.2" r="2.4" fill="#00ff88" opacity="0.51"/>
  <circle cx="39.8" cy="101.8" r="1.7" fill="#00ff88" opacity="0.87"/>
  <circle cx="40.2" cy="94.5" r="2.2" fill="#00ff88" opacity="0.62"/>
  <circle cx="41.9" cy="87.1" r="2.0" fill="#00ff88" opacity="0.75"/>
  <circle cx="44.5" cy="80.2" r="1.8" fill="#00ff88" opacity="0.83"/>
  <circle cx="48.1" cy="73.8" r="2.5" fill="#00ff88" opacity="0.47"/>
  <circle cx="52.8" cy="67.5" r="1.6" fill="#00ff88" opacity="0.91"/>
  <circle cx="58.2" cy="62.1" r="2.3" fill="#00ff88" opacity="0.59"/>
  <circle cx="64.1" cy="57.2" r="1.9" fill="#00ff88" opacity="0.77"/>
  <circle cx="70.8" cy="53.1" r="2.1" fill="#00ff88" opacity="0.69"/>
  <circle cx="77.9" cy="49.8" r="1.7" fill="#00ff88" opacity="0.86"/>
  <circle cx="85.2" cy="47.5" r="2.4" fill="#00ff88" opacity="0.53"/>
  <circle cx="92.8" cy="45.9" r="2.0" fill="#00ff88" opacity="0.74"/>
  <circle cx="100.5" cy="45.2" r="1.8" fill="#00ff88" opacity="0.84"/>
  <circle cx="108.1" cy="45.8" r="2.2" fill="#00ff88" opacity="0.61"/>
  <circle cx="115.8" cy="47.5" r="1.6" fill="#00ff88" opacity="0.93"/>
  <circle cx="123.2" cy="50.1" r="2.5" fill="#00ff88" opacity="0.46"/>
  <circle cx="130.1" cy="53.8" r="1.9" fill="#00ff88" opacity="0.78"/>
  <circle cx="136.8" cy="58.2" r="2.1" fill="#00ff88" opacity="0.67"/>
  <circle cx="142.9" cy="63.5" r="1.7" fill="#00ff88" opacity="0.88"/>
  <circle cx="148.5" cy="69.2" r="2.3" fill="#00ff88" opacity="0.54"/>
  <circle cx="153.2" cy="75.8" r="2.0" fill="#00ff88" opacity="0.72"/>
  <circle cx="157.1" cy="82.5" r="1.8" fill="#00ff88" opacity="0.81"/>
  <circle cx="160.2" cy="89.8" r="2.4" fill="#00ff88" opacity="0.49"/>
  <!-- Second layer - offset particles -->
  <circle cx="171.2" cy="98.5" r="1.5" fill="#00ff88" opacity="0.65"/>
  <circle cx="170.1" cy="109.8" r="2.0" fill="#00ff88" opacity="0.58"/>
  <circle cx="165.8" cy="120.2" r="1.8" fill="#00ff88" opacity="0.82"/>
  <circle cx="159.2" cy="129.5" r="2.2" fill="#00ff88" opacity="0.71"/>
  <circle cx="150.8" cy="138.1" r="1.6" fill="#00ff88" opacity="0.89"/>
  <circle cx="141.5" cy="145.2" r="2.4" fill="#00ff88" opacity="0.52"/>
  <circle cx="131.2" cy="151.1" r="1.9" fill="#00ff88" opacity="0.76"/>
  <circle cx="120.1" cy="155.5" r="2.1" fill="#00ff88" opacity="0.63"/>
  <circle cx="108.5" cy="158.2" r="1.7" fill="#00ff88" opacity="0.91"/>
  <circle cx="96.8" cy="158.8" r="2.3" fill="#00ff88" opacity="0.55"/>
  <circle cx="85.2" cy="157.1" r="2.0" fill="#00ff88" opacity="0.79"/>
  <circle cx="74.1" cy="153.5" r="1.8" fill="#00ff88" opacity="0.68"/>
  <circle cx="63.8" cy="148.2" r="2.5" fill="#00ff88" opacity="0.44"/>
  <circle cx="54.5" cy="141.1" r="1.6" fill="#00ff88" opacity="0.86"/>
  <circle cx="46.8" cy="132.8" r="2.2" fill="#00ff88" opacity="0.61"/>
  <circle cx="40.5" cy="123.5" r="1.9" fill="#00ff88" opacity="0.74"/>
  <circle cx="36.2" cy="113.2" r="2.1" fill="#00ff88" opacity="0.82"/>
  <circle cx="33.8" cy="102.5" r="1.7" fill="#00ff88" opacity="0.57"/>
  <circle cx="33.5" cy="91.8" r="2.4" fill="#00ff88" opacity="0.69"/>
  <circle cx="35.2" cy="81.2" r="2.0" fill="#00ff88" opacity="0.85"/>
  <circle cx="39.1" cy="71.5" r="1.8" fill="#00ff88" opacity="0.48"/>
  <circle cx="44.8" cy="62.8" r="2.3" fill="#00ff88" opacity="0.77"/>
  <circle cx="52.1" cy="55.1" r="1.6" fill="#00ff88" opacity="0.92"/>
  <circle cx="60.8" cy="48.8" r="2.1" fill="#00ff88" opacity="0.64"/>
  <circle cx="70.5" cy="44.2" r="1.9" fill="#00ff88" opacity="0.73"/>
  <circle cx="80.8" cy="41.1" r="2.5" fill="#00ff88" opacity="0.51"/>
  <circle cx="91.5" cy="39.5" r="1.7" fill="#00ff88" opacity="0.88"/>
  <circle cx="102.2" cy="39.8" r="2.2" fill="#00ff88" opacity="0.59"/>
  <circle cx="112.8" cy="41.5" r="2.0" fill="#00ff88" opacity="0.81"/>
  <circle cx="123.1" cy="45.1" r="1.8" fill="#00ff88" opacity="0.66"/>
  <circle cx="132.5" cy="50.2" r="2.4" fill="#00ff88" opacity="0.53"/>
  <circle cx="141.2" cy="56.8" r="1.6" fill="#00ff88" opacity="0.87"/>
  <circle cx="148.8" cy="64.5" r="2.3" fill="#00ff88" opacity="0.72"/>
  <circle cx="155.2" cy="73.2" r="1.9" fill="#00ff88" opacity="0.78"/>
  <circle cx="160.1" cy="82.8" r="2.1" fill="#00ff88" opacity="0.62"/>
  <circle cx="163.5" cy="93.1" r="1.7" fill="#00ff88" opacity="0.84"/>
  <!-- Third layer - inner particles -->
  <circle cx="164.5" cy="103.8" r="1.6" fill="#00ff88" opacity="0.71"/>
  <circle cx="161.2" cy="115.2" r="2.1" fill="#00ff88" opacity="0.56"/>
  <circle cx="155.1" cy="125.8" r="1.8" fill="#00ff88" opacity="0.83"/>
  <circle cx="146.8" cy="134.5" r="2.3" fill="#00ff88" opacity="0.49"/>
  <circle cx="136.5" cy="142.1" r="1.7" fill="#00ff88" opacity="0.89"/>
  <circle cx="125.2" cy="148.2" r="2.0" fill="#00ff88" opacity="0.67"/>
  <circle cx="113.1" cy="152.5" r="2.4" fill="#00ff88" opacity="0.54"/>
  <circle cx="100.5" cy="154.8" r="1.6" fill="#00ff88" opacity="0.91"/>
  <circle cx="87.8" cy="154.2" r="2.2" fill="#00ff88" opacity="0.63"/>
  <circle cx="75.5" cy="151.1" r="1.9" fill="#00ff88" opacity="0.77"/>
  <circle cx="64.2" cy="145.8" r="2.1" fill="#00ff88" opacity="0.58"/>
  <circle cx="54.1" cy="138.5" r="1.8" fill="#00ff88" opacity="0.85"/>
  <circle cx="45.8" cy="129.2" r="2.5" fill="#00ff88" opacity="0.46"/>
  <circle cx="39.5" cy="118.5" r="1.7" fill="#00ff88" opacity="0.79"/>
  <circle cx="35.2" cy="107.1" r="2.3" fill="#00ff88" opacity="0.68"/>
  <circle cx="33.1" cy="95.2" r="2.0" fill="#00ff88" opacity="0.74"/>
  <circle cx="33.5" cy="83.5" r="1.6" fill="#00ff88" opacity="0.92"/>
  <circle cx="36.2" cy="72.1" r="2.4" fill="#00ff88" opacity="0.51"/>
  <circle cx="41.1" cy="61.5" r="1.9" fill="#00ff88" opacity="0.82"/>
  <circle cx="48.2" cy="52.2" r="2.1" fill="#00ff88" opacity="0.65"/>
  <circle cx="57.1" cy="44.5" r="1.8" fill="#00ff88" opacity="0.88"/>
  <circle cx="67.5" cy="38.8" r="2.2" fill="#00ff88" opacity="0.57"/>
  <circle cx="78.8" cy="35.1" r="1.7" fill="#00ff88" opacity="0.76"/>
  <circle cx="90.5" cy="33.5" r="2.5" fill="#00ff88" opacity="0.48"/>
  <circle cx="102.5" cy="34.1" r="2.0" fill="#00ff88" opacity="0.84"/>
  <circle cx="114.2" cy="36.8" r="1.6" fill="#00ff88" opacity="0.69"/>
  <circle cx="125.1" cy="41.5" r="2.3" fill="#00ff88" opacity="0.55"/>
  <circle cx="135.2" cy="48.2" r="1.9" fill="#00ff88" opacity="0.81"/>
  <circle cx="144.1" cy="56.5" r="2.1" fill="#00ff88" opacity="0.62"/>
  <circle cx="151.5" cy="66.1" r="1.8" fill="#00ff88" opacity="0.87"/>
  <circle cx="157.2" cy="76.8" r="2.4" fill="#00ff88" opacity="0.52"/>
  <circle cx="161.1" cy="88.2" r="1.7" fill="#00ff88" opacity="0.78"/>
  <!-- Accent particles - random scatter -->
  <circle cx="175.2" cy="95.1" r="1.2" fill="#00ff88" opacity="0.42"/>
  <circle cx="173.8" cy="112.5" r="1.4" fill="#00ff88" opacity="0.38"/>
  <circle cx="167.5" cy="128.2" r="1.1" fill="#00ff88" opacity="0.45"/>
  <circle cx="156.2" cy="141.8" r="1.3" fill="#00ff88" opacity="0.41"/>
  <circle cx="142.1" cy="152.5" r="1.2" fill="#00ff88" opacity="0.47"/>
  <circle cx="125.8" cy="159.8" r="1.5" fill="#00ff88" opacity="0.39"/>
  <circle cx="107.2" cy="163.1" r="1.1" fill="#00ff88" opacity="0.44"/>
  <circle cx="88.5" cy="162.5" r="1.4" fill="#00ff88" opacity="0.36"/>
  <circle cx="70.8" cy="158.2" r="1.3" fill="#00ff88" opacity="0.48"/>
  <circle cx="54.5" cy="150.1" r="1.2" fill="#00ff88" opacity="0.42"/>
  <circle cx="40.8" cy="139.2" r="1.5" fill="#00ff88" opacity="0.37"/>
  <circle cx="30.2" cy="125.5" r="1.1" fill="#00ff88" opacity="0.46"/>
  <circle cx="24.5" cy="110.1" r="1.4" fill="#00ff88" opacity="0.41"/>
  <circle cx="23.1" cy="93.8" r="1.2" fill="#00ff88" opacity="0.43"/>
  <circle cx="26.2" cy="77.5" r="1.3" fill="#00ff88" opacity="0.39"/>
  <circle cx="33.5" cy="62.8" r="1.5" fill="#00ff88" opacity="0.45"/>
  <circle cx="44.2" cy="49.5" r="1.1" fill="#00ff88" opacity="0.38"/>
  <circle cx="58.1" cy="38.8" r="1.4" fill="#00ff88" opacity="0.47"/>
  <circle cx="74.5" cy="31.2" r="1.2" fill="#00ff88" opacity="0.42"/>
  <circle cx="92.2" cy="27.5" r="1.3" fill="#00ff88" opacity="0.36"/>
  <circle cx="110.5" cy="28.1" r="1.5" fill="#00ff88" opacity="0.44"/>
  <circle cx="128.1" cy="32.8" r="1.1" fill="#00ff88" opacity="0.49"/>
  <circle cx="144.2" cy="41.5" r="1.4" fill="#00ff88" opacity="0.41"/>
  <circle cx="158.1" cy="53.2" r="1.2" fill="#00ff88" opacity="0.38"/>
  <circle cx="169.2" cy="67.8" r="1.3" fill="#00ff88" opacity="0.46"/>
  <circle cx="176.5" cy="84.1" r="1.5" fill="#00ff88" opacity="0.43"/>
</svg>

